<?xml version="1.0" standalone="no"?>
<!DOCTYPE svg PUBLIC "-//W3C//DTD SVG 20010904//EN"
 "http://www.w3.org/TR/2001/REC-SVG-20010904/DTD/svg10.dtd">
<svg version="1.0" xmlns="http://www.w3.org/2000/svg"
 width="1200.000000pt" height="1200.000000pt" viewBox="0 0 1200.000000 1200.000000"
 preserveAspectRatio="xMidYMid meet">
<metadata>
Created by potrace 1.14, written by Peter Selinger 2001-2017
</metadata>
<g transform="translate(0.000000,1200.000000) scale(0.100000,-0.100000)"
fill="#000000" stroke="none">
<path d="M9925 7905 c-5 -2 -50 -15 -100 -30 -245 -73 -461 -208 -643 -400
-152 -160 -187 -225 -537 -986 -595 -1298 -649 -1410 -811 -1705 -362 -660
-713 -1101 -983 -1235 l-66 -34 70 -7 c96 -10 275 6 360 32 457 141 957 649
1452 1475 384 640 788 1507 1125 2415 71 192 168 466 168 476 0 5 -20 4 -35
-1z"/>
<path d="M2509 7627 c-500 -287 -489 -281 -489 -287 0 -18 2567 -2946 2658
-3032 286 -271 618 -418 948 -418 332 0 582 125 781 390 102 136 279 398 363
537 180 298 285 526 452 978 48 132 119 301 156 374 37 74 69 139 71 144 10
26 -262 -24 -371 -68 -150 -61 -308 -187 -404 -321 -24 -34 -149 -268 -277
-520 -366 -719 -460 -867 -633 -990 -129 -93 -255 -134 -404 -134 -146 0 -252
34 -382 121 -80 54 -391 365 -530 529 -212 251 -466 610 -655 925 -320 533
-646 1222 -863 1828 -29 81 -56 147 -60 147 -4 0 -166 -91 -361 -203z"/>
<path d="M8611 7384 c-248 -66 -454 -225 -677 -521 -204 -270 -377 -605 -547
-1058 -192 -516 -487 -1068 -779 -1461 -165 -221 -387 -454 -543 -569 -44 -33
-82 -61 -85 -63 -3 -2 13 -20 35 -39 108 -96 244 -153 362 -153 198 1 382 98
603 319 171 172 342 401 492 661 336 582 505 907 805 1555 218 469 563 1255
578 1318 l7 27 -98 -1 c-55 0 -123 -7 -153 -15z"/>
</g>
</svg>
