<?xml version="1.0" encoding="UTF-8" standalone="no"?>
<!-- Created with Inkscape (http://www.inkscape.org/) -->

<svg
   version="1.1"
   id="svg2"
   width="529.93335"
   height="294.07999"
   viewBox="0 0 529.93335 294.07999"
   sodipodi:docname="vicharak logo.eps"
   xmlns:inkscape="http://www.inkscape.org/namespaces/inkscape"
   xmlns:sodipodi="http://sodipodi.sourceforge.net/DTD/sodipodi-0.dtd"
   xmlns="http://www.w3.org/2000/svg"
   xmlns:svg="http://www.w3.org/2000/svg">
  <defs
     id="defs6" />
  <sodipodi:namedview
     id="namedview4"
     pagecolor="#ffffff"
     bordercolor="#000000"
     borderopacity="0.25"
     inkscape:showpageshadow="2"
     inkscape:pageopacity="0.0"
     inkscape:pagecheckerboard="0"
     inkscape:deskcolor="#d1d1d1" />
  <g
     id="g8"
     inkscape:groupmode="layer"
     inkscape:label="ink_ext_XXXXXX"
     transform="matrix(1.3333333,0,0,-1.3333333,0,294.08)">
    <g
       id="g10"
       transform="scale(0.1)">
      <path
         d="m 431.055,2167.83 c 0,0 354.883,-1110.1 1025.225,-1699.119 29.89,-25.152 96.84,-73.77 191.23,-81.211 130.12,-10.281 259.26,61.91 337.7,184.48 44.59,69.692 66.48,96.04 226.07,415.352 36.6,73.218 66.85,133.088 86.66,172.188 20.85,39.15 58.71,97.39 123.64,148.52 120.49,94.85 252.89,101.19 299.69,101.21 -45.69,-77.61 -74.06,-143.54 -91.79,-190.59 -18.5,-49.11 -38.07,-109.03 -80.34,-217.02 -4.24,-10.839 -8.8,-22.14 -14.3,-35.351 -21.36,-51.328 -68.06,-157.508 -141.95,-283.898 -38.54,-65.93 -90.32,-147.309 -157.73,-236.59 C 2188.12,368.91 2107.39,266.781 1980.07,222.359 1782.42,153.391 1505.67,198.031 1259.13,480.02 839.418,960.082 419.707,1440.13 0,1920.18 c 143.684,82.55 287.367,165.1 431.055,247.65"
         style="fill:#100f0d;fill-opacity:1;fill-rule:nonzero;stroke:none"
         id="path12" />
      <path
         d="m 1981.83,106.219 c 0,0 347,181.25 683.48,981.721 0,0 283.91,921.31 762.36,860.89 0,0 -389.07,-936.4 -641.43,-1344.201 0,0 -431.12,-883.539 -804.41,-498.41"
         style="fill:#100f0d;fill-opacity:1;fill-rule:nonzero;stroke:none"
         id="path14" />
      <path
         d="m 2381.4,9.01172 c 0,0 262.88,25.49998 699.26,971.34028 129.74,282.488 259.47,564.978 389.2,847.478 32.75,61.3 104.84,176.04 241.15,267.53 102.35,68.7 200.7,97.31 263.44,110.23 0,0 -772.86,-2369.309 -1593.05,-2196.57828"
         style="fill:#100f0d;fill-opacity:1;fill-rule:nonzero;stroke:none"
         id="path16" />
    </g>
  </g>
</svg>
