<?xml version="1.0" encoding="UTF-8"?>
<svg id="Layer_2" data-name="Layer 2" xmlns="http://www.w3.org/2000/svg" viewBox="0 0 397.45 220.56">
  <defs>
    <style>
      .cls-1 {
        fill: #fff;
      }
    </style>
  </defs>
  <g id="Layer_1-2" data-name="Layer 1">
    <g>
      <path class="cls-1" d="m43.11,3.78s35.49,111.01,102.52,169.91c2.99,2.51,9.68,7.38,19.12,8.12,13.01,1.03,25.93-6.19,33.77-18.45,4.46-6.97,6.65-9.6,22.61-41.53,3.66-7.32,6.68-13.31,8.67-17.22,2.09-3.92,5.87-9.74,12.37-14.85,12.05-9.49,25.29-10.12,29.97-10.12-4.57,7.76-7.41,14.35-9.18,19.06-1.85,4.91-3.81,10.9-8.03,21.7-.42,1.08-.88,2.21-1.43,3.53-2.14,5.13-6.81,15.75-14.2,28.39-3.85,6.59-9.03,14.73-15.77,23.66-4.7,7.69-12.78,17.9-25.51,22.34-19.77,6.9-47.44,2.43-72.09-25.77C83.94,124.55,41.97,76.55,0,28.54,14.37,20.29,28.74,12.03,43.11,3.78Z"/>
      <path class="cls-1" d="m198.18,209.94s34.7-18.12,68.35-98.17c0,0,28.39-92.13,76.24-86.09,0,0-38.91,93.64-64.14,134.42,0,0-43.11,88.35-80.44,49.84Z"/>
      <path class="cls-1" d="m238.14,219.66s26.29-2.55,69.93-97.13c12.97-28.25,25.95-56.5,38.92-84.75,3.27-6.13,10.48-17.6,24.11-26.75,10.23-6.87,20.07-9.73,26.34-11.02,0,0-77.29,236.93-159.31,219.66Z"/>
    </g>
  </g>
</svg>