<?xml version="1.0" encoding="UTF-8" standalone="no"?>
<!-- Created with Inkscape (http://www.inkscape.org/) -->

<svg
   version="1.1"
   id="svg2"
   width="800"
   height="800"
   viewBox="0 0 800 800"
   sodipodi:docname="vicharak logo.eps"
   xmlns:inkscape="http://www.inkscape.org/namespaces/inkscape"
   xmlns:sodipodi="http://sodipodi.sourceforge.net/DTD/sodipodi-0.dtd"
   xmlns="http://www.w3.org/2000/svg"
   xmlns:svg="http://www.w3.org/2000/svg">
  <defs
     id="defs6" />
  <sodipodi:namedview
     id="namedview4"
     pagecolor="#ffffff"
     bordercolor="#000000"
     borderopacity="0.25"
     inkscape:showpageshadow="2"
     inkscape:pageopacity="0.0"
     inkscape:pagecheckerboard="0"
     inkscape:deskcolor="#d1d1d1" />
  <g
     id="g8"
     inkscape:groupmode="layer"
     inkscape:label="ink_ext_XXXXXX"
     transform="matrix(1.3333333,0,0,-1.3333333,0,800)">
    <g
       id="g10"
       transform="scale(0.1)">
      <path
         d="M 6000,0 H 0 V 6000 H 6000 V 0"
         style="fill:#100f0d;fill-opacity:1;fill-rule:nonzero;stroke:none"
         id="path12" />
      <path
         d="m 1432.22,3756.65 c 0,0 354.89,-1110.1 1025.24,-1699.13 29.88,-25.14 96.83,-73.76 191.21,-81.21 130.13,-10.27 259.27,61.91 337.71,184.48 44.6,69.69 66.47,96.05 226.07,415.35 36.6,73.23 66.85,133.11 86.65,172.19 20.86,39.16 58.71,97.4 123.65,148.53 120.49,94.84 252.89,101.18 299.69,101.2 -45.69,-77.6 -74.06,-143.54 -91.8,-190.59 -18.49,-49.11 -38.06,-109.02 -80.33,-217.02 -4.24,-10.83 -8.81,-22.13 -14.29,-35.34 -21.37,-51.34 -68.07,-157.5 -141.97,-283.91 -38.53,-65.93 -90.31,-147.3 -157.72,-236.59 -47.04,-76.89 -127.78,-179.01 -255.08,-223.44 -197.66,-68.96 -474.41,-24.31 -720.96,257.68 -419.7,480.05 -839.42,960.09 -1259.12,1440.14 143.68,82.55 287.37,165.11 431.05,247.66"
         style="fill:#ffffff;fill-opacity:1;fill-rule:nonzero;stroke:none"
         id="path14" />
      <path
         d="m 2982.99,1695.04 c 0,0 347,181.24 683.49,981.72 0,0 283.91,921.3 762.35,860.89 0,0 -389.06,-936.41 -641.43,-1344.2 0,0 -431.12,-883.55 -804.41,-498.41"
         style="fill:#ffffff;fill-opacity:1;fill-rule:nonzero;stroke:none"
         id="path16" />
      <path
         d="m 3382.57,1597.82 c 0,0 262.88,25.51 699.27,971.34 129.72,282.49 259.46,564.99 389.2,847.49 32.74,61.29 104.83,176.04 241.14,267.53 102.34,68.7 200.69,97.3 263.45,110.22 0,0 -772.88,-2369.3 -1593.06,-2196.58"
         style="fill:#ffffff;fill-opacity:1;fill-rule:nonzero;stroke:none"
         id="path18" />
    </g>
  </g>
</svg>
